PathFileType	4	(X/Y/Z)	C:/Users/beibeiliu/ov580/test_trc/User3\out8_training_dense_right.trc
DataRate	CameraRate	NumFrames	NumMarkers	Units	OrigDataRate	OrigDataStartFrame	OrigNumFrames
120	120	22	19	mm	120	63	500
Frame#	Time	ThumbCMC			ThumbMCP			ThumbIP			ThumbTip			IndexMCP			IndexPIP			IndexTip			MiddleMCP			MiddlePIP			MiddleTip			RingMCP			RingPIP			RingTip			PinkyMCP			PinkyPIP			PinkyTip			BackHand1			BackHand2			BackHand3	
		X0	Y0	Z0	X1	Y1	Z1	X2	Y2	Z2	X3	Y3	Z3	X4	Y4	Z4	X5	Y5	Z5	X6	Y6	Z6	X7	Y7	Z7	X8	Y8	Z8	X9	Y9	Z9	X10	Y10	Z10	X11	Y11	Z11	X12	Y12	Z12	X13	Y13	Z13	X14	Y14	Z14	X15	Y15	Z15	X16	Y16	Z16	X17	Y17	Z17	X18	Y18	Z18	
62	0.516667	206.843	35.7809	31.088	211.505	53.3767	9.15039	222.151	69.3573	-17.075	224.43	78.2431	-35.0331	227.494	23.4154	-40.2508	201.737	33.483	-57.495	181.483	37.7735	-28.6214	219.311	5.50197	-52.0885	191.995	20.1095	-60.605	170.917	18.1827	-24.7761	214.834	-15.3681	-45.4641	190.295	-0.241406	-62.7398	168.39	7.1419	-35.7143	210.418	-38.3859	-32.5386	213.821	-37.2064	-56.4793	214.7	-35.8188	-80.8638	220.435	-24.9009	11.9217	209.573	-30.4266	40.5994	225.633	4.92813	26.71	
63	0.525	203.628	39.8684	26.8449	206.173	56.9905	5.19784	212.29	74.8596	-17.4991	213.672	86.1949	-39.34	225.056	22.7653	-45.1761	203.848	36.9036	-69.9825	175.204	35.7569	-52.1969	220.868	3.53704	-53.2475	199.829	13.5864	-74.4778	161.856	17.0972	-52.741	215.955	-17.6951	-45.7922	198.628	-12.2275	-71.447	169.167	-0.843766	-64.6979	207.746	-38.0148	-31.1154	211.375	-39.0025	-51.5839	212.861	-45.5207	-76.4271	221.524	-21.8652	7.07567	211.075	-24.472	39.4056	223.77	11.7986	23.0496	
64	0.533333	196.47	40.8785	29.5477	199.543	62.6233	2.67591	199.617	79.5184	-16.7073	200.312	89.3877	-39.8836	223.401	28.6554	-45.4361	208.298	34.8202	-78.9872	177.331	35.2483	-80.126	222.153	7.52832	-54.7184	206.436	8.31194	-83.1759	169.165	17.1442	-86.9673	216.367	-15.8752	-46.1544	205.426	-17.1609	-78.8487	181.195	-8.80529	-88.7199	206.436	-35.4278	-30.468	211.007	-43.8724	-51.8483	212.483	-53.7685	-72.4771	217.531	-18.9613	3.94351	212.511	-21.3923	36.3166	219.369	13.632	21.3393	
65	0.541667	188.87	44.6606	24.7321	184.442	60.4293	0.940175	182.754	79.7245	-20.0069	178.232	90.6547	-38.2987	214.539	30.7221	-47.751	208.712	30.9877	-81.856	188.441	32.7127	-99.6966	219.706	5.04351	-58.652	212.055	7.57094	-85.9008	185.317	11.2001	-109.152	214.788	-11.3031	-49.0659	213.089	-13.9904	-76.8422	195.435	-14.3183	-101.938	206.372	-34.9577	-31.4489	211.56	-47.3431	-51.1848	215.741	-54.6586	-68.5494	214.949	-13.9927	4.68592	211.475	-14.142	35.2655	216.827	17.1694	15.2702	
66	0.55	180.696	45.6719	21.6337	171.295	59.1734	-0.110964	165.964	78.5015	-25.1608	159.084	87.7318	-40.5564	203.653	30.0995	-54.5659	202.288	36.2607	-80.5661	190.466	34.5378	-109.799	211.195	7.61066	-57.3591	208.761	7.73121	-87.1964	195.498	5.14347	-120.435	211.28	-13.0805	-52.346	211.977	-16.4219	-78.5163	205.91	-18.5471	-102.184	205.548	-35.2103	-29.9842	210.268	-44.4117	-45.3165	218.982	-59.7496	-64.9145	214.891	-12.6171	-0.943346	212.285	-11.8792	30.3083	209.237	21.5402	14.173	
67	0.558333	174.277	45.9515	21.2615	162.169	57.0507	-1.64652	153.025	70.0995	-26.9155	142.96	83.5113	-38.6648	195.044	30.6977	-55.6847	192.311	36.8224	-82.4803	189.38	34.0942	-108.689	203.552	11.5071	-63.3289	202.781	8.06322	-86.9375	198.531	6.54659	-117.779	207.34	-12.3356	-48.2173	209.559	-13.6188	-73.5538	208.941	-18.3531	-100.391	206.17	-35.5282	-28.3889	214.857	-42.3447	-49.7854	223.507	-54.4115	-62.7517	212.772	-6.87685	0.57104	215.541	-8.68146	31.5896	205.214	27.3158	9.09891	
68	0.566667	165.173	41.7069	20.925	151.605	49.4596	-0.136732	136.18	66.6648	-23.5955	126.028	74.8146	-37.6451	187.116	31.5144	-53.7296	186.545	35.2378	-79.7679	182.772	39.7084	-105.561	202.679	11.7743	-64.122	199.872	11.0169	-86.948	198.219	11.1941	-118.439	209.291	-8.78249	-50.3358	210.329	-7.43368	-73.8897	213.619	-9.76177	-102.879	211.467	-29.0639	-30.4496	217.925	-34.5015	-46.0842	233.014	-43.2775	-66.5285	212.259	0.426272	-0.105522	215.826	-1.57147	27.0807	201.278	26.5382	8.47593	
69	0.575	160.491	34.6647	16.5061	143.062	42.2513	-1.63584	125.744	55.411	-26.6097	112.727	60.7164	-36.7525	179.917	36.5905	-57.8458	177.934	39.8795	-81.0677	176.408	42.8358	-104.812	199.043	18.4926	-62.1028	196.747	19.2304	-87.6191	198.46	15.2821	-119.193	210.092	-1.48938	-49.1132	211.724	0.269496	-73.1987	219.311	-5.12087	-101.336	216.301	-20.8449	-33.5868	226.772	-30.2865	-45.2178	239.485	-35.0919	-63.0924	214.128	3.80683	-3.27291	213.079	7.94184	29.4443	192.585	31.908	11.9545	
70	0.583333	154.967	31.3894	19.1307	135.814	36.7638	-3.77738	115.587	48.5934	-24.1585	102.458	52.5971	-38.006	177.779	34.6993	-59.3827	172.134	40.4418	-81.6035	168.737	44.6954	-108.576	199.729	18.8647	-60.6857	194.404	23.0449	-85.275	196.891	19.7933	-116.223	208.235	3.8967	-49.4736	213.012	5.41218	-72.5889	217.64	4.85222	-99.5102	219.276	-16.4628	-33.7224	231.074	-24.1169	-49.942	241.059	-25.6127	-63.8003	212.043	6.62519	-3.78253	212.147	9.33501	25.5296	191.462	33.4619	9.56404	
71	0.591667	150.173	29.0472	17.5253	128.517	33.5489	-0.938149	111.647	36.3187	-26.6038	93.8408	41.2785	-41.4814	172.741	36.4945	-56.005	169.37	38.5336	-83.157	162.818	43.1438	-104.034	194.912	24.5888	-62.5718	193.938	25.7695	-85.2631	193.209	25.5147	-120.209	209.073	7.02119	-50.5528	215.745	5.15784	-72.1242	219.576	7.36415	-101.888	219.396	-15.738	-30.8453	228.99	-18.7856	-48.4339	240.5	-25.0578	-64.8431	212.142	11.6427	0.755556	209.235	12.6313	32.0784	184.779	32.4251	14.0991	
72	0.6	146.947	25.6296	21.8036	124.991	26.6088	-3.88815	107.477	27.7369	-26.6615	92.2482	26.354	-43.6809	170.867	36.0772	-52.2016	163.722	39.7374	-82.9258	157.832	38.8765	-106.722	194.287	26.8928	-59.2309	195.294	27.0826	-86.583	190.189	26.0573	-116.384	207.75	11.6166	-46.7938	211.622	12.7125	-74.6852	217.748	6.39095	-101.269	218.011	-10.3586	-30.6941	228.554	-17.376	-54.3729	239.527	-27.5321	-73.0174	209.717	15.2271	2.14585	209.901	14.1256	28.5087	180.391	35.1729	10.9912	
73	0.608333	144.844	23.7956	19.589	120.717	22.4805	-0.316316	107.125	19.1244	-25.4314	96.1012	15.4482	-45.1554	166.494	40.728	-50.5704	155.55	43.9237	-77.9168	149.56	38.6765	-101.696	191.507	32.8858	-55.6184	191.048	32.2504	-82.2017	183.984	24.9327	-115.046	204.968	16.7592	-44.7295	212.09	14.9002	-74.7651	208.307	5.14692	-101.556	217.677	-7.84986	-31.7617	225.417	-17.3355	-55.4101	223.965	-29.7854	-79.3641	205.486	17.7276	1.68245	206.004	15.395	33.5264	177.817	34.8581	17.4602	
74	0.616667	144.249	21.3728	22.4735	125.467	18.0026	-4.55252	112.264	14.8423	-27.9512	108.407	7.15109	-51.6934	166.381	46.2027	-46.2365	156.36	48.0019	-77.6943	148.508	32.7723	-98.217	190.809	39.801	-51.998	190.229	37.7707	-83.0779	178.799	22.1516	-109.442	204.935	22.006	-42.1576	206.046	16.9986	-76.9417	197.029	3.08216	-96.11	215.139	-3.03519	-33.1566	214.401	-13.8966	-60.7949	199.417	-28.4793	-76.7074	208.106	19.2037	3.46342	205.575	15.3262	36.6424	178.835	37.4483	17.57	
75	0.625	143.99	23.0934	22.9027	125.771	18.5794	-2.68322	115.817	14.6548	-29.8754	117.695	6.39511	-58.461	167.638	51.4841	-45.2687	157.392	49.3543	-74.6423	141.593	29.194	-90.0509	189.087	45.8902	-45.48	184.095	43.4505	-81.3356	166.342	13.9191	-99.6935	204.761	27.0687	-45.8835	200.327	22.6662	-72.0366	183.223	-2.1474	-86.368	212.275	1.00665	-33.142	207.836	-9.90915	-57.7747	184.701	-28.6377	-67.0629	208.648	21.704	6.26373	205.386	15.0463	37.5439	178.515	41.418	21.7075	
76	0.633333	144.006	24.2455	24.9254	127.23	21.3556	-8.07928	120.523	15.5947	-33.8708	124.044	5.46901	-59.1085	170.938	52.1593	-41.0427	155.57	50.5769	-72.6857	140.676	19.2625	-80.7416	188.257	48.5672	-47.5712	180.839	40.5255	-80.4099	158.999	10.6243	-84.6078	200.308	28.8161	-42.9701	192.894	16.7269	-73.9401	173.177	-7.06721	-72.8647	207.875	4.65141	-34.8705	199.241	-7.38346	-58.0662	172.418	-24.7918	-56.7226	205.239	22.9736	11.1615	208.658	16.9548	35.801	179.469	39.443	27.5119	
77	0.641667	142.379	26.1249	23.7237	128.474	20.0518	-5.16098	120.967	16.9786	-34.2791	129.306	4.52183	-58.7913	166.251	56.6563	-45.6228	153.954	46.2821	-72.8041	139.857	17.005	-72.889	186.79	46.7216	-50.7643	173.162	37.7017	-78.3879	156.593	2.35582	-71.5959	201.03	26.6893	-50.0633	186.11	14.8643	-70.928	166.03	-8.56721	-61.6722	208.713	2.49757	-37.5163	193.278	-11.369	-57.5052	169.49	-27.3288	-44.8392	205.211	24.2913	7.06183	206.905	15.3828	34.2158	180.623	38.7071	24.0236	
78	0.65	141.52	26.1981	25.4843	125.008	21.5371	-3.6573	120.4	18.4765	-39.5352	135.996	4.73104	-57.3927	167.505	53.4759	-41.9193	151.507	47.0364	-72.123	138.768	16.3303	-68.3403	185.448	45.9596	-47.7866	174.607	32.2298	-78.0511	155.007	1.14737	-64.9247	199.085	25.0752	-48.6945	185.432	6.80494	-69.877	165.547	-11.5961	-51.6526	207.31	4.06485	-40.7763	194.76	-10.8109	-57.1169	169.761	-24.1074	-46.0953	205.851	27.1914	8.90795	204.078	19.5803	38.648	179.33	40.3313	23.5755	
79	0.658333	141.05	26.5069	23.3795	124.308	23.4076	-5.30555	120.588	16.7951	-31.7298	132.843	6.14082	-54.9378	165.364	55.6549	-45.9602	155.012	42.8418	-74.1685	136.025	17.9346	-68.9358	184.033	46.2127	-48.7595	173.318	32.7877	-77.7789	152.259	-2.1708	-63.2296	197.072	25.8325	-44.5653	183.815	7.9151	-69.9919	164.509	-13.5678	-51.1164	210.291	3.89911	-38.9298	194.636	-6.05125	-57.428	171.188	-26.9337	-49.7538	205.113	27.2025	10.6911	203.127	21.1535	36.7576	176.441	40.4169	25.5374	
80	0.666667	140.779	28.0831	25.5068	123.484	24.9299	-6.15983	117.073	19.4428	-33.1011	122.177	8.13413	-57.4026	169.785	53.8346	-45.7297	155.852	46.1289	-74.6287	138.709	19.0743	-77.1269	186.003	43.901	-50.5442	176.337	31.3265	-79.5813	152.38	0.59497	-75.0364	199.057	25.5988	-44.1427	187.748	11.422	-70.0888	165.164	-13.4404	-62.6918	210.098	6.05178	-35.1805	201.256	-8.30663	-59.007	176.538	-26.1034	-59.4412	203.45	27.7894	11.0313	202.695	19.7058	37.6101	175.897	40.6627	25.6133	
81	0.675	140.083	29.0401	24.6926	122.558	25.871	-3.1522	112.498	23.1403	-30.5956	118.456	12.337	-52.7628	165.947	54.5194	-46.1646	155.744	47.8559	-75.6524	138.75	23.1627	-87.8088	188.063	42.3227	-53.9155	176.22	29.4182	-82.3421	152.977	2.44024	-87.8796	200.761	24.0844	-46.5224	189.175	12.2936	-74.0146	171.286	-15.3909	-75.8667	212.983	4.16116	-34.7722	211.273	-7.50155	-58.2296	194.575	-21.7487	-73.8226	203.254	25.4361	12.0227	205.49	18.2427	39.011	179.534	39.7196	23.6845	
82	0.683333	137.233	32.2533	23.7382	121.027	29.3534	-1.87712	111.156	26.9592	-29.8251	108.42	18.7031	-52.3824	167.735	49.3026	-49.3741	158.651	47.3147	-76.2234	146.912	29.8692	-94.27	185.566	39.9386	-52.2481	176.682	35.3483	-80.7465	157.12	4.84686	-101.945	199.314	22.7901	-47.8532	191.136	12.7687	-75.339	178.148	-8.40358	-87.3164	212.987	2.97318	-29.7563	218.759	-6.63401	-54.3184	214.066	-15.8534	-75.5831	204.614	25.1904	6.26177	203.61	21.9891	35.4179	177.022	41.0523	19.621	
83	0.691667	139.386	31.1544	25.4112	117.812	31.9091	-1.18897	105.754	30.8518	-25.1441	99.6093	24.8907	-49.2254	165.973	46.9465	-47.7834	155.723	46.3965	-78.6479	145.06	34.4095	-101.284	186.662	37.2084	-52.0579	179.624	32.7222	-81.2888	165.327	14.5842	-108.395	196.879	22.5123	-43.7527	197.023	15.4205	-71.1805	183.56	-0.701808	-96.1762	214.277	2.71156	-31.5381	221.378	-2.68834	-52.6926	227.397	-8.3154	-70.834	204.684	24.8151	8.10588	203.542	19.5988	39.361	176.849	42.6128	20.2844	
